<svg xmlns="http://www.w3.org/2000/svg" width="70" height="70" viewBox="0 0 70 70"><defs><style>.a{fill:#00aa13;}.b{fill:#fff;}.c{fill:#eb008b;}</style></defs><path class="a" d="M72.247,39.081V62.52a9.756,9.756,0,0,1-9.727,9.724H15.857A9.756,9.756,0,0,1,6.13,62.52V15.854A9.756,9.756,0,0,1,15.857,6.13H62.52a9.756,9.756,0,0,1,9.727,9.724Z" transform="translate(-4.188 -4.188)"/><path class="b" d="M0,170.71v4.26a11.7,11.7,0,0,0,11.669,11.669H58.331A11.7,11.7,0,0,0,70,174.97v-4.26" transform="translate(0 -116.639)"/><path class="c" d="M8.987,181.86a9.654,9.654,0,0,0,6.87,2.851H62.52a9.756,9.756,0,0,0,9.727-9.724V170.73H6.13v4.26a9.654,9.654,0,0,0,2.851,6.87" transform="translate(-4.188 -116.653)"/><path class="b" d="M69.882,61.13c7.573,0,11.5,3.823,11.5,9.819a8.7,8.7,0,0,1-5.4,8.2c1.584,4.434,3.167,8.739,5.214,13.18H68.931L63.509,74.655a7.455,7.455,0,0,0,1.5.187c2.151,0,5.138-.219,5.138-2.775,0-2.217-1.672-2.851-4.118-2.851h-2.7c-3.424,7.7-6.671,15.416-9.889,23.122H40.425c-3.738-9.911-4.634-12.781-9.075-23.16H42.981l4.162,13.389h.092l7.241-21.412Z" transform="translate(-21.42 -41.768)"/><path class="b" d="M70,11.666A11.7,11.7,0,0,0,58.331,0H11.669A11.7,11.7,0,0,0,0,11.666V33.952H0V58.341A11.7,11.7,0,0,0,11.669,70H58.331A11.7,11.7,0,0,0,70,58.334ZM68.058,58.334a9.756,9.756,0,0,1-9.727,9.724H11.669a9.756,9.756,0,0,1-9.727-9.724V11.666a9.756,9.756,0,0,1,9.727-9.724H58.331a9.759,9.759,0,0,1,9.727,9.724Z"/><path class="b" d="M31.154,181.07l2.917,6.563H32.715l-.681-1.584h-2.92l-.633,1.584H27.15l2.708-6.563Zm-1.653,4h2.119l-1.109-2.6Z" transform="translate(-18.55 -123.718)"/><path class="b" d="M52.169,181.07v6.563H51V181.07Z" transform="translate(-34.846 -123.718)"/><path class="b" d="M59.026,181.53a.652.652,0,0,1,.462,1.112.653.653,0,0,1-1.1-.472.614.614,0,0,1,.2-.462A.633.633,0,0,1,59.026,181.53Zm.576,2.03v4.387H58.45V183.56Z" transform="translate(-39.895 -124.032)"/><path class="b" d="M68.534,187.661a1.5,1.5,0,0,1,.858.238,1.432,1.432,0,0,1,.523.633,2.746,2.746,0,0,1,.741-.665,1.619,1.619,0,0,1,.811-.209,1.482,1.482,0,0,1,1.124.453,1.7,1.7,0,0,1,.428,1.21v2.809h-1.15v-2.616a1.181,1.181,0,0,0-.2-.719.665.665,0,0,0-.567-.263,1.329,1.329,0,0,0-1.02.681v2.917h-1.15v-2.635a1.086,1.086,0,0,0-.209-.706.668.668,0,0,0-.554-.257.9.9,0,0,0-.516.162,2.4,2.4,0,0,0-.5.519v2.917H66v-4.384h1.156v.615a2.369,2.369,0,0,1,.633-.529A1.584,1.584,0,0,1,68.534,187.661Z" transform="translate(-45.095 -128.218)"/><path class="b" d="M93.183,187.666a1.967,1.967,0,0,1,1.533.633,2.461,2.461,0,0,1,.564,1.714v.174H92.173a1.353,1.353,0,0,0,.44.906,1.492,1.492,0,0,0,1.01.317,2.281,2.281,0,0,0,.8-.143,3.484,3.484,0,0,0,.792-.434v.858a3.148,3.148,0,0,1-1.872.545,2.366,2.366,0,0,1-1.695-.633,2.185,2.185,0,0,1-.652-1.666A2.271,2.271,0,0,1,91.6,188.3a2.1,2.1,0,0,1,1.581-.633Zm1.01,1.809a1.267,1.267,0,0,0-.291-.748.858.858,0,0,0-.671-.272.95.95,0,0,0-.7.26,1.267,1.267,0,0,0-.336.76Z" transform="translate(-62.171 -128.223)"/><path class="b" d="M109.933,187.667a1.448,1.448,0,0,1,1.124.462,1.742,1.742,0,0,1,.421,1.226v2.79h-1.15v-2.673a1.026,1.026,0,0,0-.206-.675.681.681,0,0,0-.557-.25.877.877,0,0,0-.5.158,2.363,2.363,0,0,0-.516.523v2.917H107.39v-4.393h1.143v.614a2.043,2.043,0,0,1,.656-.538A1.672,1.672,0,0,1,109.933,187.667Z" transform="translate(-73.375 -128.224)"/><path class="b" d="M123.872,184.26h.1v1.166h1.5v.874h-1.5v2.024a.662.662,0,0,0,.177.478.634.634,0,0,0,.488.184,1.957,1.957,0,0,0,.931-.291v.928a2.914,2.914,0,0,1-1.175.276,1.584,1.584,0,0,1-1.156-.4,1.457,1.457,0,0,1-.418-1.1v-2.1h-.684v-.19Z" transform="translate(-83.446 -125.897)"/><path class="b" d="M135.959,187.66a2.033,2.033,0,0,1,1.292.358,1.219,1.219,0,0,1,.447,1v2.148c0,.168.067.25.2.25a.633.633,0,0,0,.238-.073,1.03,1.03,0,0,0,.257-.168v.668a2.16,2.16,0,0,1-1.109.371.95.95,0,0,1-.478-.1.576.576,0,0,1-.231-.367,2.29,2.29,0,0,1-1.33.469,1.134,1.134,0,0,1-.814-.317,1.01,1.01,0,0,1-.342-.767,1.2,1.2,0,0,1,.339-.9,2.867,2.867,0,0,1,1.185-.573l.934-.272v-.2c0-.428-.26-.633-.779-.633a1.856,1.856,0,0,0-.8.184,2.217,2.217,0,0,0-.719.538V188.24A2.68,2.68,0,0,1,135.959,187.66Zm-.706,3.3a.5.5,0,0,0,.152.383.523.523,0,0,0,.38.146,1.128,1.128,0,0,0,.76-.348v-1.159a5.823,5.823,0,0,0-.76.317,1.406,1.406,0,0,0-.4.3.542.542,0,0,0-.117.364Z" transform="translate(-91.615 -128.217)"/><path class="b" d="M151.33,187.666a3.2,3.2,0,0,1,1.387.295v.982a2.338,2.338,0,0,0-1.166-.355,1.409,1.409,0,0,0-.972,2.35,1.371,1.371,0,0,0,1.014.374,3.215,3.215,0,0,0,1.2-.317v.95a3.975,3.975,0,0,1-1.5.276l-.054.136c.377.12.567.339.567.652a.776.776,0,0,1-.272.633,1.267,1.267,0,0,1-.836.231,2.455,2.455,0,0,1-.535-.07v-.51l.2.019c.374,0,.564-.1.564-.291a.215.215,0,0,0-.1-.181.56.56,0,0,0-.317-.076h-.038l.288-.6a2.119,2.119,0,0,1-1.267-.748,2.167,2.167,0,0,1-.494-1.432,2.252,2.252,0,0,1,.649-1.685A2.3,2.3,0,0,1,151.33,187.666Z" transform="translate(-101.801 -128.223)"/><path class="b" d="M164.679,183.632a2.033,2.033,0,0,1,1.292.358,1.219,1.219,0,0,1,.447,1v2.148c0,.168.067.25.2.25a.634.634,0,0,0,.238-.073.925.925,0,0,0,.257-.168v.668a2.16,2.16,0,0,1-1.109.371.928.928,0,0,1-.475-.1.567.567,0,0,1-.234-.367,2.277,2.277,0,0,1-1.33.469,1.134,1.134,0,0,1-.814-.317,1.01,1.01,0,0,1-.342-.766,1.2,1.2,0,0,1,.339-.9,2.866,2.866,0,0,1,1.185-.573l.934-.272v-.2c0-.428-.26-.633-.779-.633a1.857,1.857,0,0,0-.8.184,2.218,2.218,0,0,0-.719.538v-1.039A2.68,2.68,0,0,1,164.679,183.632Zm1.653-1.862a1.657,1.657,0,0,1-.279.95.8.8,0,0,1-.684.348,1.086,1.086,0,0,1-.4-.073c-.133-.048-.26-.1-.386-.155s-.238-.1-.352-.146a.849.849,0,0,0-.317-.066.317.317,0,0,0-.257.114.6.6,0,0,0-.127.317h-.519a1.818,1.818,0,0,1,.291-.95.8.8,0,0,1,.675-.339,2.083,2.083,0,0,1,.748.2l.374.158a.859.859,0,0,0,.317.076c.215,0,.348-.149.4-.447Zm-2.36,5.163a.5.5,0,0,0,.152.383.523.523,0,0,0,.38.146,1.128,1.128,0,0,0,.76-.348v-1.159a5.831,5.831,0,0,0-.76.317,1.407,1.407,0,0,0-.4.3A.542.542,0,0,0,163.972,186.932Z" transform="translate(-111.238 -124.189)"/><path class="b" d="M180.072,187.669a2.705,2.705,0,0,1,1.245.285,2.122,2.122,0,0,1,.865.8,2.268,2.268,0,0,1,.317,1.172,2.392,2.392,0,0,1-.291,1.194,2.094,2.094,0,0,1-.865.808,2.714,2.714,0,0,1-1.267.295,2.677,2.677,0,0,1-1.267-.295,2.087,2.087,0,0,1-.855-.808,2.36,2.36,0,0,1-.295-1.194,2.239,2.239,0,0,1,.317-1.178,2.106,2.106,0,0,1,.865-.8,2.654,2.654,0,0,1,1.232-.285Zm-1.194,2.262a1.612,1.612,0,0,0,.317,1.048,1.058,1.058,0,0,0,.865.393,1.1,1.1,0,0,0,.887-.377,1.584,1.584,0,0,0,.317-1.074,1.492,1.492,0,0,0-.317-1.033,1.121,1.121,0,0,0-.884-.364,1.071,1.071,0,0,0-.855.386A1.5,1.5,0,0,0,178.878,189.931Z" transform="translate(-121.386 -128.227)"/></svg>