<svg xmlns="http://www.w3.org/2000/svg" width="70" height="70" viewBox="0 0 70 70"><defs><style>.a{fill:#00aa13;}.b,.d{fill:#fff;}.c{fill:#eb008b;}.d{font-size:9px;font-family:Montserrat-SemiBold, Montserrat;font-weight:600;}</style></defs><path class="a" d="M72.247,39.081V62.52a9.756,9.756,0,0,1-9.727,9.724H15.857A9.756,9.756,0,0,1,6.13,62.52V15.854A9.756,9.756,0,0,1,15.857,6.13H62.52a9.756,9.756,0,0,1,9.727,9.724Z" transform="translate(-4.188 -4.188)"/><path class="b" d="M0,170.71v4.26a11.7,11.7,0,0,0,11.669,11.669H58.331A11.7,11.7,0,0,0,70,174.97v-4.26" transform="translate(0 -116.639)"/><path class="c" d="M8.987,181.86a9.654,9.654,0,0,0,6.87,2.851H62.52a9.756,9.756,0,0,0,9.727-9.724V170.73H6.13v4.26a9.654,9.654,0,0,0,2.851,6.87" transform="translate(-4.188 -116.653)"/><path class="b" d="M69.882,61.13c7.573,0,11.5,3.823,11.5,9.819a8.7,8.7,0,0,1-5.4,8.2c1.584,4.434,3.167,8.739,5.214,13.18H68.931L63.509,74.655a7.455,7.455,0,0,0,1.5.187c2.151,0,5.138-.219,5.138-2.775,0-2.217-1.672-2.851-4.118-2.851h-2.7c-3.424,7.7-6.671,15.416-9.889,23.122H40.425c-3.738-9.911-4.634-12.781-9.075-23.16H42.981l4.162,13.389h.092l7.241-21.412Z" transform="translate(-21.42 -41.768)"/><path class="b" d="M70,11.666A11.7,11.7,0,0,0,58.331,0H11.669A11.7,11.7,0,0,0,0,11.666V33.952H0V58.341A11.7,11.7,0,0,0,11.669,70H58.331A11.7,11.7,0,0,0,70,58.334ZM68.058,58.334a9.756,9.756,0,0,1-9.727,9.724H11.669a9.756,9.756,0,0,1-9.727-9.724V11.666a9.756,9.756,0,0,1,9.727-9.724H58.331a9.759,9.759,0,0,1,9.727,9.724Z"/><text class="d" transform="translate(35 64)"><tspan x="-12.316" y="0">Natal</tspan></text></svg>