<svg xmlns="http://www.w3.org/2000/svg" width="70" height="70" viewBox="0 0 70 70"><defs><style>.a{fill:#00aa13;}.b{fill:#fff;}.c{fill:#ec1b34;}</style></defs><path class="a" d="M72.247,39.081V62.52a9.756,9.756,0,0,1-9.727,9.724H15.857A9.756,9.756,0,0,1,6.13,62.52V15.854A9.756,9.756,0,0,1,15.857,6.13H62.52a9.756,9.756,0,0,1,9.727,9.724Z" transform="translate(-4.188 -4.188)"/><path class="b" d="M0,170.71v4.26a11.7,11.7,0,0,0,11.669,11.669H58.331A11.7,11.7,0,0,0,70,174.97v-4.26" transform="translate(0 -116.639)"/><path class="c" d="M8.987,181.86a9.654,9.654,0,0,0,6.87,2.851H62.52a9.756,9.756,0,0,0,9.727-9.724V170.73H6.13v4.26a9.654,9.654,0,0,0,2.851,6.87" transform="translate(-4.188 -116.653)"/><path class="b" d="M69.882,61.13c7.573,0,11.5,3.823,11.5,9.819a8.7,8.7,0,0,1-5.4,8.2c1.584,4.434,3.167,8.739,5.214,13.18H68.931L63.509,74.655a7.455,7.455,0,0,0,1.5.187c2.151,0,5.138-.219,5.138-2.775,0-2.217-1.672-2.851-4.118-2.851h-2.7c-3.424,7.7-6.671,15.416-9.889,23.122H40.425c-3.738-9.911-4.634-12.781-9.075-23.16H42.981l4.162,13.389h.092l7.241-21.412Z" transform="translate(-21.42 -41.768)"/><path class="b" d="M70,11.666A11.7,11.7,0,0,0,58.331,0H11.669A11.7,11.7,0,0,0,0,11.666V33.952H0V58.341A11.7,11.7,0,0,0,11.669,70H58.331A11.7,11.7,0,0,0,70,58.334ZM68.058,58.334a9.756,9.756,0,0,1-9.727,9.724H11.669a9.756,9.756,0,0,1-9.727-9.724V11.666a9.756,9.756,0,0,1,9.727-9.724H58.331a9.759,9.759,0,0,1,9.727,9.724Z"/><path class="b" d="M43.409,181.07v.991H41.078v5.571H39.811v-5.571H37.48v-.991Z" transform="translate(-25.609 -123.718)"/><path class="b" d="M58.859,187.67a1.077,1.077,0,0,1,.456.1,2.505,2.505,0,0,1,.516.345l-.424,1.01a1.52,1.52,0,0,0-.808-.374.862.862,0,0,0-.529.2,1.4,1.4,0,0,0-.418.529,1.511,1.511,0,0,0-.158.656v2H56.35v-4.387h1.156v1.118h.019a3.035,3.035,0,0,1,.633-.919,1.029,1.029,0,0,1,.7-.285Z" transform="translate(-38.502 -128.227)"/><path class="b" d="M69.986,187.66a2.033,2.033,0,0,1,1.292.358,1.219,1.219,0,0,1,.459,1.014v2.147c0,.168.067.25.2.25a.633.633,0,0,0,.238-.073,1.029,1.029,0,0,0,.257-.168v.668a2.16,2.16,0,0,1-1.109.371.951.951,0,0,1-.478-.1.577.577,0,0,1-.231-.367,2.284,2.284,0,0,1-1.33.469,1.134,1.134,0,0,1-.814-.317,1.01,1.01,0,0,1-.342-.767,1.2,1.2,0,0,1,.339-.9,2.866,2.866,0,0,1,1.185-.583l.95-.272v-.2c0-.428-.26-.633-.779-.633a1.856,1.856,0,0,0-.8.184,2.217,2.217,0,0,0-.719.538V188.24a2.68,2.68,0,0,1,1.679-.58Zm-.706,3.3a.5.5,0,0,0,.152.383.523.523,0,0,0,.38.146,1.128,1.128,0,0,0,.76-.348v-1.159a5.823,5.823,0,0,0-.76.317,1.406,1.406,0,0,0-.4.3.542.542,0,0,0-.117.364Z" transform="translate(-46.547 -128.217)"/><path class="b" d="M86.27,187.667a1.454,1.454,0,0,1,1.128.462,1.755,1.755,0,0,1,.418,1.226v2.79h-1.15v-2.673a1.026,1.026,0,0,0-.206-.675.675.675,0,0,0-.554-.25.862.862,0,0,0-.5.158,2.3,2.3,0,0,0-.516.523v2.917H83.73v-4.393h1.156v.614a2.043,2.043,0,0,1,.656-.538,1.647,1.647,0,0,1,.729-.162Z" transform="translate(-57.209 -128.224)"/><path class="b" d="M101.1,187.667a2.766,2.766,0,0,1,.681.082,3.43,3.43,0,0,1,.678.26v.928a3.1,3.1,0,0,0-.706-.342,2.1,2.1,0,0,0-.671-.13.694.694,0,0,0-.39.1.317.317,0,0,0-.139.266.269.269,0,0,0,.117.2,4.319,4.319,0,0,0,.633.361,3.938,3.938,0,0,1,1.055.7,1.086,1.086,0,0,1,.317.773,1.223,1.223,0,0,1-.443,1,1.812,1.812,0,0,1-1.194.364,3.636,3.636,0,0,1-.874-.1,2.879,2.879,0,0,1-.675-.25v-.95a3.088,3.088,0,0,0,1.422.469.969.969,0,0,0,.481-.1.3.3,0,0,0,.117-.469.871.871,0,0,0-.2-.174c-.086-.06-.361-.2-.82-.428a2.3,2.3,0,0,1-.786-.551,1.064,1.064,0,0,1-.253-.71,1.109,1.109,0,0,1,.456-.928A1.926,1.926,0,0,1,101.1,187.667Z" transform="translate(-67.949 -128.224)"/><path class="b" d="M114.7,187.667a1.954,1.954,0,0,1,1.517.633,2.334,2.334,0,0,1,.576,1.641,2.534,2.534,0,0,1-.272,1.185,1.97,1.97,0,0,1-.767.811,2.176,2.176,0,0,1-1.128.291,2.3,2.3,0,0,1-1.029-.257v2.385H112.44v-6.6h1.147v.282a1.9,1.9,0,0,1,1.112-.367Zm-1.1,3.456a1.644,1.644,0,0,0,.808.247,1.083,1.083,0,0,0,.874-.39,1.511,1.511,0,0,0,.317-1.007,1.679,1.679,0,0,0-.295-1.052,1,1,0,0,0-.833-.38,1.175,1.175,0,0,0-.393.067,2.277,2.277,0,0,0-.491.291Z" transform="translate(-76.826 -128.224)"/><path class="b" d="M130.833,187.669a2.705,2.705,0,0,1,1.245.285,2.122,2.122,0,0,1,.865.8,2.268,2.268,0,0,1,.317,1.172,2.36,2.36,0,0,1-.295,1.194,2.059,2.059,0,0,1-.865.808,2.825,2.825,0,0,1-2.512,0,2.087,2.087,0,0,1-.855-.808,2.36,2.36,0,0,1-.295-1.194,2.217,2.217,0,0,1,.317-1.178,2.106,2.106,0,0,1,.865-.8A2.645,2.645,0,0,1,130.833,187.669Zm-1.194,2.262a1.584,1.584,0,0,0,.317,1.048,1.058,1.058,0,0,0,.862.393,1.105,1.105,0,0,0,.89-.377,1.584,1.584,0,0,0,.317-1.074,1.492,1.492,0,0,0-.317-1.033,1.128,1.128,0,0,0-.887-.364,1.08,1.08,0,0,0-.855.386,1.517,1.517,0,0,0-.339,1.02Z" transform="translate(-87.756 -128.227)"/><path class="b" d="M149.012,187.67a1.061,1.061,0,0,1,.453.1,2.435,2.435,0,0,1,.519.345l-.415,1.01a1.52,1.52,0,0,0-.808-.374.868.868,0,0,0-.529.2,1.4,1.4,0,0,0-.418.529,1.5,1.5,0,0,0-.155.656v2H146.5v-4.387h1.159v1.118h.016a3.035,3.035,0,0,1,.633-.919,1.029,1.029,0,0,1,.7-.285Z" transform="translate(-100.097 -128.227)"/><path class="b" d="M159.242,184.26h.1v1.166h1.5v.874h-1.5v2.024a.649.649,0,0,0,.181.478.634.634,0,0,0,.488.184,1.958,1.958,0,0,0,.931-.291v.928a2.936,2.936,0,0,1-1.175.276,1.584,1.584,0,0,1-1.159-.4,1.454,1.454,0,0,1-.415-1.1v-2.1H157.5v-.19Z" transform="translate(-107.613 -125.897)"/><path class="b" d="M171.89,187.666a1.958,1.958,0,0,1,1.53.633,2.445,2.445,0,0,1,.564,1.714v.174h-3.1a1.349,1.349,0,0,0,.437.906,1.5,1.5,0,0,0,1.014.317,2.28,2.28,0,0,0,.8-.143,3.605,3.605,0,0,0,.792-.434v.858a3.167,3.167,0,0,1-1.872.545,2.372,2.372,0,0,1-1.7-.633,2.195,2.195,0,0,1-.656-1.663,2.271,2.271,0,0,1,.608-1.638A2.1,2.1,0,0,1,171.89,187.666Zm1.01,1.809a1.267,1.267,0,0,0-.291-.748.868.868,0,0,0-.675-.272.95.95,0,0,0-.7.26,1.248,1.248,0,0,0-.336.76Z" transform="translate(-115.944 -128.223)"/></svg>