<svg xmlns="http://www.w3.org/2000/svg" width="70" height="70" viewBox="0 0 70 70"><defs><style>.a{fill:#00aa13;}.b{fill:#fff;}.c{fill:#f6921e;}</style></defs><path class="a" d="M72.247,39.081V62.52a9.756,9.756,0,0,1-9.727,9.724H15.857A9.756,9.756,0,0,1,6.13,62.52V15.854A9.756,9.756,0,0,1,15.857,6.13H62.52a9.756,9.756,0,0,1,9.727,9.724Z" transform="translate(-4.188 -4.188)"/><path class="b" d="M0,170.71v4.26a11.7,11.7,0,0,0,11.669,11.669H58.331A11.7,11.7,0,0,0,70,174.97v-4.26" transform="translate(0 -116.639)"/><path class="c" d="M8.987,181.86a9.654,9.654,0,0,0,6.87,2.851H62.52a9.759,9.759,0,0,0,9.727-9.724V170.73H6.13v4.26a9.654,9.654,0,0,0,2.851,6.87" transform="translate(-4.188 -116.653)"/><path class="b" d="M69.882,61.13c7.573,0,11.5,3.823,11.5,9.819a8.7,8.7,0,0,1-5.4,8.2c1.584,4.434,3.167,8.739,5.214,13.18H68.931L63.509,74.655a7.455,7.455,0,0,0,1.5.187c2.151,0,5.138-.219,5.138-2.775,0-2.217-1.672-2.851-4.118-2.851h-2.7c-3.424,7.7-6.671,15.416-9.889,23.122H40.425c-3.738-9.911-4.634-12.781-9.075-23.16H42.981l4.162,13.389h.092l7.241-21.412Z" transform="translate(-21.42 -41.768)"/><path class="b" d="M70,11.666A11.7,11.7,0,0,0,58.331,0H11.669A11.7,11.7,0,0,0,0,11.666V33.952H0V58.341A11.7,11.7,0,0,0,11.669,70H58.331A11.7,11.7,0,0,0,70,58.334ZM68.058,58.334a9.756,9.756,0,0,1-9.727,9.724H11.669a9.756,9.756,0,0,1-9.727-9.724V11.666a9.756,9.756,0,0,1,9.727-9.724H58.331a9.759,9.759,0,0,1,9.727,9.724Z"/><path class="b" d="M47.188,178.365a2.692,2.692,0,0,1,1.853.633,2.078,2.078,0,0,1,.719,1.641,2.056,2.056,0,0,1-.355,1.2,2.347,2.347,0,0,1-1.058.808,2.344,2.344,0,0,1,.69.567,7.284,7.284,0,0,1,.744,1.207c.494.979.858,1.653,1.1,2.024H49.139c-.117-.177-.279-.459-.485-.849a18.334,18.334,0,0,0-.982-1.739,2.334,2.334,0,0,0-.6-.633,1.185,1.185,0,0,0-.665-.19h-.564v3.411H44.28v-8.077Zm-.355,3.443a1.4,1.4,0,0,0,.95-.317,1.048,1.048,0,0,0,.352-.836,1,1,0,0,0-.348-.83,1.555,1.555,0,0,0-.988-.276h-.957V181.8Z" transform="translate(-30.255 -121.867)"/><path class="b" d="M68.833,186.482a2.414,2.414,0,0,1,1.9.763,3.015,3.015,0,0,1,.694,2.109v.212H67.591a1.663,1.663,0,0,0,.538,1.112,1.859,1.859,0,0,0,1.248.4,2.774,2.774,0,0,0,.979-.177,4.151,4.151,0,0,0,.972-.535v1.058a3.877,3.877,0,0,1-2.3.671,2.908,2.908,0,0,1-2.087-.77,2.692,2.692,0,0,1-.808-2.046,2.791,2.791,0,0,1,.748-2A2.585,2.585,0,0,1,68.833,186.482Zm1.242,2.217a1.546,1.546,0,0,0-.358-.922,1.055,1.055,0,0,0-.827-.317,1.178,1.178,0,0,0-.862.317,1.549,1.549,0,0,0-.415.934Z" transform="translate(-45.185 -127.413)"/><path class="b" d="M87.211,178a3.209,3.209,0,0,1,.513.044,1.758,1.758,0,0,1,.424.124v1.156a2.43,2.43,0,0,0-.633-.082,1,1,0,0,0-.763.266,1.267,1.267,0,0,0-.253.884v.386h.925v1.077h-.934v4.324H85.067v-4.311H84.3v-1.077h.767v-.4a2.467,2.467,0,0,1,.589-1.736A2,2,0,0,1,87.211,178Z" transform="translate(-57.599 -121.617)"/><path class="b" d="M98.323,186.483a2.414,2.414,0,0,1,1.885.763,3.015,3.015,0,0,1,.694,2.11v.212h-3.82a1.663,1.663,0,0,0,.538,1.112,1.859,1.859,0,0,0,1.248.393,2.775,2.775,0,0,0,.979-.177,4.218,4.218,0,0,0,.972-.535v1.058a3.877,3.877,0,0,1-2.3.671,2.908,2.908,0,0,1-2.087-.77,2.692,2.692,0,0,1-.808-2.046,2.79,2.79,0,0,1,.751-2A2.585,2.585,0,0,1,98.323,186.483Zm1.242,2.217a1.565,1.565,0,0,0-.358-.922,1.055,1.055,0,0,0-.827-.317,1.191,1.191,0,0,0-.865.317,1.565,1.565,0,0,0-.412.934Z" transform="translate(-65.334 -127.414)"/><path class="b" d="M116.464,178.93a.811.811,0,0,1,.8.8.8.8,0,0,1-.234.564.76.76,0,0,1-.57.244.773.773,0,0,1-.564-.244.792.792,0,0,1-.241-.564.76.76,0,0,1,.244-.57A.785.785,0,0,1,116.464,178.93Zm.713,2.5v5.4h-1.41v-5.4Z" transform="translate(-79.025 -122.255)"/><path class="b" d="M127.023,186.483a3.9,3.9,0,0,1,1.7.364v1.207a2.9,2.9,0,0,0-1.435-.44,1.733,1.733,0,0,0-1.194,2.9,1.685,1.685,0,0,0,1.248.459,4.032,4.032,0,0,0,1.479-.38v1.15a4.856,4.856,0,0,1-1.85.342l-.07.168c.466.146.7.412.7.8a.95.95,0,0,1-.336.76,1.565,1.565,0,0,1-1.029.288,3.187,3.187,0,0,1-.659-.089v-.633l.25.022c.462,0,.694-.117.694-.358a.276.276,0,0,0-.13-.225.7.7,0,0,0-.4-.092h-.048L126.3,192a2.607,2.607,0,0,1-1.584-.919,2.689,2.689,0,0,1-.58-1.745,2.781,2.781,0,0,1,.8-2.075A2.832,2.832,0,0,1,127.023,186.483Z" transform="translate(-84.814 -127.413)"/><path class="b" d="M143.475,181.55a2.49,2.49,0,0,1,1.584.44,1.5,1.5,0,0,1,.548,1.235v2.642q0,.317.247.317a.751.751,0,0,0,.295-.089,1.267,1.267,0,0,0,.317-.206v.82a2.639,2.639,0,0,1-1.365.459,1.14,1.14,0,0,1-.586-.127.709.709,0,0,1-.285-.453,2.813,2.813,0,0,1-1.638.58,1.422,1.422,0,0,1-1-.39,1.267,1.267,0,0,1-.418-.95,1.46,1.46,0,0,1,.415-1.1,3.484,3.484,0,0,1,1.457-.706l1.15-.336v-.247c0-.529-.317-.792-.95-.792a2.271,2.271,0,0,0-.976.225,2.711,2.711,0,0,0-.887.665v-1.267A3.291,3.291,0,0,1,143.475,181.55Zm2.033-2.29a2.062,2.062,0,0,1-.342,1.185,1,1,0,0,1-.843.428,1.4,1.4,0,0,1-.491-.089c-.162-.06-.317-.124-.475-.193s-.291-.127-.431-.181a1.055,1.055,0,0,0-.39-.079.4.4,0,0,0-.317.139.728.728,0,0,0-.155.39h-.633a2.217,2.217,0,0,1,.358-1.172.95.95,0,0,1,.827-.415,2.534,2.534,0,0,1,.919.247l.462.193a1.036,1.036,0,0,0,.393.1c.266,0,.428-.181.485-.548Zm-2.9,6.335a.634.634,0,0,0,.187.472.649.649,0,0,0,.466.181,1.4,1.4,0,0,0,.95-.428V184.4a7.138,7.138,0,0,0-.934.38,1.755,1.755,0,0,0-.5.364.681.681,0,0,0-.171.466Z" transform="translate(-96.458 -122.481)"/><path class="b" d="M162.389,186.489a3.32,3.32,0,0,1,1.533.352,2.55,2.55,0,0,1,1.064.988,2.775,2.775,0,0,1,.374,1.438,2.9,2.9,0,0,1-.374,1.47,2.55,2.55,0,0,1-1.064.995,3.456,3.456,0,0,1-3.088,0,2.563,2.563,0,0,1-1.055-.995,2.9,2.9,0,0,1-.361-1.47,2.759,2.759,0,0,1,.38-1.448,2.635,2.635,0,0,1,1.064-.982A3.259,3.259,0,0,1,162.389,186.489Zm-1.467,2.778a1.957,1.957,0,0,0,.4,1.292,1.3,1.3,0,0,0,1.061.485,1.359,1.359,0,0,0,1.09-.462,1.973,1.973,0,0,0,.4-1.324,1.844,1.844,0,0,0-.4-1.267,1.4,1.4,0,0,0-1.09-.447,1.33,1.33,0,0,0-1.055.472A1.869,1.869,0,0,0,160.923,189.267Z" transform="translate(-108.923 -127.42)"/></svg>