<svg xmlns="http://www.w3.org/2000/svg" width="62" height="62" viewBox="0 0 62 62"><defs><style>.a{fill:#00aa13;}.b{fill:#fff;}.c{fill:#a29061;}</style></defs><path class="a" d="M64.931,35.546V56.309a8.649,8.649,0,0,1-8.615,8.615H14.983A8.646,8.646,0,0,1,6.37,56.309V34.77a.4.4,0,0,0,0-.056V14.975A8.649,8.649,0,0,1,14.983,6.36H56.316a8.646,8.646,0,0,1,8.613,8.615Z" transform="translate(-4.649 -4.642)"/><path class="b" d="M.25,170.58v3.773a10.361,10.361,0,0,0,10.333,10.333H51.917A10.364,10.364,0,0,0,62.25,174.353V170.58" transform="translate(-0.25 -122.687)"/><path class="c" d="M8.893,180.458a8.556,8.556,0,0,0,6.082,2.531H56.309a8.646,8.646,0,0,0,8.613-8.621V170.6H6.36v3.768a8.553,8.553,0,0,0,2.531,6.085" transform="translate(-4.642 -122.701)"/><path class="b" d="M65.641,61.228c6.709,0,10.187,3.374,10.187,8.683a7.706,7.706,0,0,1-4.78,7.26c1.406,3.937,2.812,7.741,4.62,11.675H64.82l-4.8-15.65a6.616,6.616,0,0,0,1.333.166c1.9,0,4.549-.194,4.549-2.46,0-1.949-1.479-2.531-3.638-2.531H59.868c-3.031,6.821-5.9,13.657-8.759,20.467H39.539c-3.312-8.778-4.105-11.32-8.039-20.512H41.811l3.683,11.857h.084L51.99,61.22Z" transform="translate(-22.713 -44.077)"/><path class="b" d="M62.25,10.583A10.364,10.364,0,0,0,51.917.25H10.583A10.361,10.361,0,0,0,.25,10.583V30.322h0V51.917A10.361,10.361,0,0,0,10.583,62.25H51.917A10.364,10.364,0,0,0,62.25,51.917ZM60.532,51.917a8.649,8.649,0,0,1-8.615,8.615H10.583a8.646,8.646,0,0,1-8.613-8.615V30.378a.4.4,0,0,0,0-.056V10.583a8.649,8.649,0,0,1,8.613-8.615H51.917a8.646,8.646,0,0,1,8.613,8.615V31.154a.418.418,0,0,0,0,.059Z" transform="translate(-0.25 -0.25)"/><path class="b" d="M32.329,178.2a2.441,2.441,0,0,1,1.6.512A1.594,1.594,0,0,1,34.551,180a1.465,1.465,0,0,1-.259.866,1.741,1.741,0,0,1-.748.593v.065a2.058,2.058,0,0,1,1.164.669,1.763,1.763,0,0,1,.433,1.167,1.909,1.909,0,0,1-.3,1.063,1.878,1.878,0,0,1-.844.7,3.154,3.154,0,0,1-1.271.236h-3V178.2Zm-.368,2.969a1.327,1.327,0,0,0,.866-.262.891.891,0,0,0,.318-.725.815.815,0,0,0-.281-.658,1.153,1.153,0,0,0-.768-.245h-1v1.89Zm.323,3.093a1.791,1.791,0,0,0,1.06-.264.911.911,0,0,0,.357-.776.844.844,0,0,0-.357-.72,1.572,1.572,0,0,0-.953-.264H31.1v2.024Z" transform="translate(-21.434 -128.166)"/><path class="b" d="M54.063,186.3a2.14,2.14,0,0,1,1.667.678,2.671,2.671,0,0,1,.616,1.867v.18H52.972a1.479,1.479,0,0,0,.481.984,1.634,1.634,0,0,0,1.1.346,2.46,2.46,0,0,0,.869-.155,3.838,3.838,0,0,0,.838-.464v.936a3.428,3.428,0,0,1-2.024.6,2.567,2.567,0,0,1-1.85-.68,2.376,2.376,0,0,1-.714-1.811A2.469,2.469,0,0,1,52.325,187,2.286,2.286,0,0,1,54.063,186.3Zm1.1,1.968a1.389,1.389,0,0,0-.318-.815.934.934,0,0,0-.731-.281,1.054,1.054,0,0,0-.765.281,1.389,1.389,0,0,0-.366.829Z" transform="translate(-37.212 -133.988)"/><path class="b" d="M74.58,186.306a1.569,1.569,0,0,1,1.226.506,1.89,1.89,0,0,1,.458,1.327v3.042H75.01v-2.913a1.125,1.125,0,0,0-.222-.737.742.742,0,0,0-.607-.281.964.964,0,0,0-.548.172,2.632,2.632,0,0,0-.562.562v3.18H71.81v-4.78h1.26v.678a2.266,2.266,0,0,1,.714-.588,1.8,1.8,0,0,1,.8-.169Z" transform="translate(-51.689 -133.99)"/><path class="b" d="M93.506,186.3a2.145,2.145,0,0,1,1.667.678,2.671,2.671,0,0,1,.616,1.867v.18H92.415a1.476,1.476,0,0,0,.478.984,1.642,1.642,0,0,0,1.105.346,2.458,2.458,0,0,0,.866-.155,3.853,3.853,0,0,0,.863-.475v.936a3.436,3.436,0,0,1-2.039.593,2.567,2.567,0,0,1-1.847-.68,2.379,2.379,0,0,1-.717-1.811,2.472,2.472,0,0,1,.664-1.783A2.286,2.286,0,0,1,93.506,186.3Zm1.1,1.968a1.389,1.389,0,0,0-.318-.815.934.934,0,0,0-.731-.281,1.055,1.055,0,0,0-.765.281,1.406,1.406,0,0,0-.368.829Z" transform="translate(-65.57 -133.988)"/><path class="b" d="M111.774,177.884a2.559,2.559,0,0,1,.456.031,1.688,1.688,0,0,1,.374.107v1.023a2.138,2.138,0,0,0-.562-.07.889.889,0,0,0-.678.236,1.125,1.125,0,0,0-.222.782v.343h.807v.953h-.818v3.83h-1.26v-3.83h-.68v-.953h.68v-.357a2.185,2.185,0,0,1,.52-1.535A1.774,1.774,0,0,1,111.774,177.884Z" transform="translate(-78.558 -127.936)"/><path class="b" d="M124.669,178.81l-1.479,1.532h-.68l.742-1.532Zm-.844,2.2v4.78h-1.257v-4.78Z" transform="translate(-88.133 -128.603)"/><path class="b" d="M133.488,186.305a3.5,3.5,0,0,1,1.51.323V187.7a2.531,2.531,0,0,0-1.271-.391,1.527,1.527,0,0,0-1.052,2.57,1.493,1.493,0,0,0,1.1.411,3.568,3.568,0,0,0,1.31-.337v1.018a4.013,4.013,0,0,1-1.532.3,2.68,2.68,0,0,1-1.887-.664,2.289,2.289,0,0,1-.723-1.766,2.46,2.46,0,0,1,.709-1.839A2.511,2.511,0,0,1,133.488,186.305Z" transform="translate(-94.194 -133.989)"/><path class="b" d="M149.623,178.78a.711.711,0,0,1,.711.711.7.7,0,0,1-1.209.5.707.707,0,0,1,.5-1.209Zm.63,2.21v4.78h-1.26v-4.78Z" transform="translate(-107.111 -128.581)"/><path class="b" d="M160.065,186.309a2.9,2.9,0,0,1,1.358.315,2.266,2.266,0,0,1,.942.874,2.452,2.452,0,0,1,.332,1.274,2.576,2.576,0,0,1-.306,1.3,2.249,2.249,0,0,1-.942.88,3.093,3.093,0,0,1-2.736,0,2.28,2.28,0,0,1-.934-.88,2.576,2.576,0,0,1-.321-1.3,2.438,2.438,0,0,1,.337-1.282,2.306,2.306,0,0,1,.942-.869A2.891,2.891,0,0,1,160.065,186.309Zm-1.3,2.463a1.749,1.749,0,0,0,.351,1.144,1.144,1.144,0,0,0,.939.427,1.215,1.215,0,0,0,.967-.408,1.749,1.749,0,0,0,.354-1.184,1.631,1.631,0,0,0-.357-1.125,1.232,1.232,0,0,0-.964-.4,1.175,1.175,0,0,0-.934.419A1.653,1.653,0,0,0,158.766,188.772Z" transform="translate(-113.254 -133.993)"/><path class="b" d="M180.591,186.3a3.017,3.017,0,0,1,.742.09,3.936,3.936,0,0,1,.737.281v1.009a3.455,3.455,0,0,0-.768-.371,2.315,2.315,0,0,0-.734-.141.771.771,0,0,0-.425.1.335.335,0,0,0-.152.281.3.3,0,0,0,.127.217,4.926,4.926,0,0,0,.7.413,4.263,4.263,0,0,1,1.147.765,1.175,1.175,0,0,1,.332.844,1.336,1.336,0,0,1-.481,1.088,1.994,1.994,0,0,1-1.3.4,3.818,3.818,0,0,1-.953-.112,3.123,3.123,0,0,1-.737-.281v-1.049a3.394,3.394,0,0,0,1.552.512,1.06,1.06,0,0,0,.523-.115.349.349,0,0,0,.2-.3.321.321,0,0,0-.073-.205.916.916,0,0,0-.214-.191c-.1-.065-.394-.219-.9-.464a2.6,2.6,0,0,1-.844-.6,1.161,1.161,0,0,1-.281-.77,1.215,1.215,0,0,1,.495-1.015A2.1,2.1,0,0,1,180.591,186.3Z" transform="translate(-128.587 -133.987)"/></svg>