<svg xmlns="http://www.w3.org/2000/svg" width="70" height="70" viewBox="0 0 70 70"><defs><style>.a{fill:#00aa13;}.b{fill:#fff;}</style></defs><path class="a" d="M72.247,39.081V62.52a9.756,9.756,0,0,1-9.727,9.724H15.857A9.756,9.756,0,0,1,6.13,62.52V15.854A9.756,9.756,0,0,1,15.857,6.13H62.52a9.756,9.756,0,0,1,9.727,9.724Z" transform="translate(-4.188 -4.188)"/><path class="b" d="M0,170.71v4.26a11.7,11.7,0,0,0,11.669,11.669H58.331A11.7,11.7,0,0,0,70,174.97v-4.26" transform="translate(0 -116.639)"/><path d="M8.987,181.86a9.654,9.654,0,0,0,6.87,2.851H62.52a9.756,9.756,0,0,0,9.727-9.724V170.73H6.13v4.26a9.654,9.654,0,0,0,2.851,6.87" transform="translate(-4.188 -116.653)"/><path class="b" d="M69.882,61.13c7.573,0,11.5,3.823,11.5,9.819a8.7,8.7,0,0,1-5.4,8.2c1.584,4.434,3.167,8.739,5.214,13.18H68.931L63.509,74.655a7.455,7.455,0,0,0,1.5.187c2.151,0,5.138-.219,5.138-2.775,0-2.217-1.672-2.851-4.118-2.851h-2.7c-3.424,7.7-6.671,15.416-9.889,23.122H40.425c-3.738-9.911-4.634-12.781-9.075-23.16H42.981l4.162,13.389h.092l7.241-21.412Z" transform="translate(-21.42 -41.768)"/><path class="b" d="M70,11.666A11.7,11.7,0,0,0,58.331,0H11.669A11.7,11.7,0,0,0,0,11.666V33.952H0V58.341A11.7,11.7,0,0,0,11.669,70H58.331A11.7,11.7,0,0,0,70,58.334ZM68.058,58.334a9.756,9.756,0,0,1-9.727,9.724H11.669a9.756,9.756,0,0,1-9.727-9.724V11.666a9.756,9.756,0,0,1,9.727-9.724H58.331a9.759,9.759,0,0,1,9.727,9.724Z"/><path class="b" d="M74.322,178.37l3.567,8.074H76.242l-.836-1.967h-3.6l-.779,1.967H69.4l3.329-8.074Zm-2.033,4.922H74.9l-1.365-3.2Z" transform="translate(-47.418 -121.873)"/><path class="b" d="M99.935,186.81v3.342a1.105,1.105,0,0,0,.263.8.912.912,0,0,0,.694.276,1.216,1.216,0,0,0,.69-.222,1.564,1.564,0,0,0,.529-.618V186.81h1.422v5.4h-1.422v-.735a2.249,2.249,0,0,1-1.663.839,1.834,1.834,0,0,1-1.4-.567,2.071,2.071,0,0,1-.532-1.479V186.81Z" transform="translate(-67.31 -127.639)"/><path class="b" d="M118.854,182.29h.117v1.432h1.85V184.8h-1.85v2.49a.82.82,0,0,0,.219.592.808.808,0,0,0,.6.225,2.436,2.436,0,0,0,1.143-.358v1.137a3.57,3.57,0,0,1-1.444.342,1.97,1.97,0,0,1-1.425-.5,1.8,1.8,0,0,1-.51-1.346V184.8h-.846v-.231Z" transform="translate(-79.743 -124.551)"/><path class="b" d="M134.67,186.489a3.316,3.316,0,0,1,1.53.352,2.55,2.55,0,0,1,1.064.988,2.774,2.774,0,0,1,.374,1.438,2.9,2.9,0,0,1-.358,1.47,2.569,2.569,0,0,1-1.064.995,3.339,3.339,0,0,1-1.546.364,3.3,3.3,0,0,1-1.546-.364,2.562,2.562,0,0,1-1.055-.995,2.9,2.9,0,0,1-.361-1.47,2.759,2.759,0,0,1,.383-1.448,2.594,2.594,0,0,1,1.064-.982A3.24,3.24,0,0,1,134.67,186.489Zm-1.47,2.778a1.973,1.973,0,0,0,.4,1.292,1.3,1.3,0,0,0,1.061.485,1.372,1.372,0,0,0,1.093-.462,1.973,1.973,0,0,0,.4-1.324,1.847,1.847,0,0,0-.4-1.267,1.394,1.394,0,0,0-1.09-.447,1.324,1.324,0,0,0-1.052.472A1.872,1.872,0,0,0,133.2,189.267Z" transform="translate(-89.99 -127.42)"/></svg>